<svg width="600" height="600" viewBox="0 0 600 600" fill="none" xmlns="http://www.w3.org/2000/svg">
<path d="M0 0H60V60H0V0Z" fill="#3A86FF"/>
<path d="M0 60L0 30H60V60H0Z" fill="#FFBE0B"/>
<path d="M60 0H120V60H60V0Z" fill="#FF006E"/>
<path d="M120 0C120 16.5685 106.569 30 90 30C73.4315 30 60 16.5685 60 0L90 0L120 0Z" fill="#FFBE0B"/>
<path d="M0 60H60V120H0V60Z" fill="#8338EC"/>
<path d="M60 60H120V120H60V60Z" fill="#FFBE0B"/>
<path d="M60 120C60 103.431 73.4315 90 90 90C106.569 90 120 103.431 120 120H90H60Z" fill="#FF006E"/>
<path d="M0 120H120V240H0V120Z" fill="#3A86FF"/>
<path d="M0 120H60V240H0V120Z" fill="#FFBE0B"/>
<path d="M0 240H60V300H0V240Z" fill="#FF006E"/>
<path d="M0 240H60L0 300V240Z" fill="#3A86FF"/>
<path d="M60 240H120V300H60V240Z" fill="#8338EC"/>
<path d="M0 300H60V360H0V300Z" fill="#FB5607"/>
<path d="M60 360H0L60 300V360Z" fill="#FF006E"/>
<path d="M60 300H120V360H60V300Z" fill="#FF006E"/>
<path d="M120 360H90V300H120V360Z" fill="#3A86FF"/>
<path d="M0 360H120V480H0V360Z" fill="#FB5607"/>
<path d="M0 480C0 446.863 26.8629 420 60 420C93.1371 420 120 446.863 120 480H60H0Z" fill="#8338EC"/>
<path d="M0 480H60V540H0V480Z" fill="#FFBE0B"/>
<path d="M60 540H0L60 480V540Z" fill="#FB5607"/>
<path d="M60 480H120V540H60V480Z" fill="#FFBE0B"/>
<path d="M120 540H60L120 480V540Z" fill="#3A86FF"/>
<path d="M0 540H60V600H0V540Z" fill="#FF006E"/>
<path d="M0 600L0 540L60 600H0Z" fill="#8338EC"/>
<path d="M60 540H120V600H60V540Z" fill="#3A86FF"/>
<path d="M120 540V570H60V540H120Z" fill="#FFBE0B"/>
<path d="M120 0H180V60H120V0Z" fill="#FB5607"/>
<path d="M120 0H180L120 60V0Z" fill="#8338EC"/>
<path d="M180 0H240V60H180V0Z" fill="#3A86FF"/>
<path d="M120 60H180V120H120V60Z" fill="#FB5607"/>
<path d="M120 120V90H180V120H120Z" fill="#3A86FF"/>
<path d="M180 60H240V120H180V60Z" fill="#FF006E"/>
<path d="M240 120C223.431 120 210 106.569 210 90C210 73.4315 223.431 60 240 60V90V120Z" fill="#FB5607"/>
<path d="M120 120H180V180H120V120Z" fill="#FB5607"/>
<path d="M180 120C180 136.569 166.569 150 150 150C133.431 150 120 136.569 120 120H150H180Z" fill="#FFBE0B"/>
<path d="M180 120H240V180H180V120Z" fill="#FF006E"/>
<path d="M180 120H210V180H180V120Z" fill="#8338EC"/>
<path d="M120 180H180V240H120V180Z" fill="#FF006E"/>
<path d="M120 240V180L180 240H120Z" fill="#3A86FF"/>
<path d="M180 180H240V240H180V180Z" fill="#FB5607"/>
<path d="M180 240V210H240V240H180Z" fill="#8338EC"/>
<path d="M120 240H180V300H120V240Z" fill="#FB5607"/>
<path d="M180 300C163.431 300 150 286.569 150 270C150 253.431 163.431 240 180 240V270V300Z" fill="#FFBE0B"/>
<path d="M180 240H240V300H180V240Z" fill="#FFBE0B"/>
<path d="M240 300H210V240H240V300Z" fill="#FB5607"/>
<path d="M120 300H180V360H120V300Z" fill="#FF006E"/>
<path d="M180 300C180 316.569 166.569 330 150 330C133.431 330 120 316.569 120 300H150H180Z" fill="#8338EC"/>
<path d="M180 300H240V360H180V300Z" fill="#FF006E"/>
<path d="M120 360H180V420H120V360Z" fill="#FFBE0B"/>
<path d="M180 360C180 376.569 166.569 390 150 390C133.431 390 120 376.569 120 360H150H180Z" fill="#FF006E"/>
<path d="M180 360H240V420H180V360Z" fill="#FB5607"/>
<path d="M120 420H180V480H120V420Z" fill="#FFBE0B"/>
<path d="M180 480H150V420H180V480Z" fill="#FF006E"/>
<path d="M180 420H240V480H180V420Z" fill="#FF006E"/>
<path d="M120 480H240V600H120V480Z" fill="#3A86FF"/>
<path d="M120 600V540H240V600H120Z" fill="#8338EC"/>
<path d="M240 0H300V60H240V0Z" fill="#FFBE0B"/>
<path d="M300 0H360V60H300V0Z" fill="#8338EC"/>
<path d="M360 0V30H300V0L360 0Z" fill="#FB5607"/>
<path d="M240 60H300V120H240V60Z" fill="#3A86FF"/>
<path d="M300 60H360V120H300V60Z" fill="#3A86FF"/>
<path d="M240 120H300V180H240V120Z" fill="#FFBE0B"/>
<path d="M300 120V180L240 120H300Z" fill="#FF006E"/>
<path d="M300 120H360V180H300V120Z" fill="#8338EC"/>
<path d="M360 180H330V120H360V180Z" fill="#3A86FF"/>
<path d="M240 180H300V240H240V180Z" fill="#3A86FF"/>
<path d="M300 240C283.431 240 270 226.569 270 210C270 193.431 283.431 180 300 180V210V240Z" fill="#FFBE0B"/>
<path d="M300 180H360V240H300V180Z" fill="#8338EC"/>
<path d="M240 240H300V300H240V240Z" fill="#3A86FF"/>
<path d="M240 240C256.569 240 270 253.431 270 270C270 286.569 256.569 300 240 300V270V240Z" fill="#FF006E"/>
<path d="M300 240H360V300H300V240Z" fill="#3A86FF"/>
<path d="M240 300H300V360H240V300Z" fill="#FF006E"/>
<path d="M300 300H360V360H300V300Z" fill="#8338EC"/>
<path d="M360 360H300L360 300V360Z" fill="#FFBE0B"/>
<path d="M240 360H360V480H240V360Z" fill="#FB5607"/>
<path d="M240 480V360L360 480H240Z" fill="#8338EC"/>
<path d="M240 480H360V600H240V480Z" fill="#8338EC"/>
<path d="M360 0H480V120H360V0Z" fill="#FF006E"/>
<path d="M480 120H360L480 0V120Z" fill="#FFBE0B"/>
<path d="M360 120H480V240H360V120Z" fill="#FFBE0B"/>
<path d="M360 240V120L480 240H360Z" fill="#FF006E"/>
<path d="M360 240H480V360H360V240Z" fill="#FF006E"/>
<path d="M480 360H420V240H480V360Z" fill="#FFBE0B"/>
<path d="M360 360H480V480H360V360Z" fill="#8338EC"/>
<path d="M360 480H480V600H360V480Z" fill="#FF006E"/>
<path d="M360 480H480L360 600V480Z" fill="#FB5607"/>
<path d="M480 0H540V60H480V0Z" fill="#FF006E"/>
<path d="M540 0V60L480 0L540 0Z" fill="#3A86FF"/>
<path d="M540 0H600V60H540V0Z" fill="#8338EC"/>
<path d="M480 60H540V120H480V60Z" fill="#8338EC"/>
<path d="M540 60C540 76.5685 526.569 90 510 90C493.431 90 480 76.5685 480 60H510H540Z" fill="#FB5607"/>
<path d="M540 60H600V120H540V60Z" fill="#FB5607"/>
<path d="M540 60C556.569 60 570 73.4315 570 90C570 106.569 556.569 120 540 120V90V60Z" fill="#3A86FF"/>
<path d="M480 120H540V180H480V120Z" fill="#3A86FF"/>
<path d="M480 180V120L540 180H480Z" fill="#FF006E"/>
<path d="M540 120H600V180H540V120Z" fill="#3A86FF"/>
<path d="M540 120C556.569 120 570 133.431 570 150C570 166.569 556.569 180 540 180V150V120Z" fill="#8338EC"/>
<path d="M480 180H540V240H480V180Z" fill="#FF006E"/>
<path d="M540 180V210H480V180H540Z" fill="#FFBE0B"/>
<path d="M540 180H600V240H540V180Z" fill="#FB5607"/>
<path d="M480 240H540V300H480V240Z" fill="#FF006E"/>
<path d="M480 240H510V300H480V240Z" fill="#FFBE0B"/>
<path d="M540 240H600V300H540V240Z" fill="#FF006E"/>
<path d="M600 240C600 256.569 586.569 270 570 270C553.431 270 540 256.569 540 240H570H600Z" fill="#FB5607"/>
<path d="M480 300H540V360H480V300Z" fill="#FF006E"/>
<path d="M480 300H540L480 360V300Z" fill="#8338EC"/>
<path d="M540 300H600V360H540V300Z" fill="#8338EC"/>
<path d="M480 360H600V480H480V360Z" fill="#FF006E"/>
<path d="M480 480C480 446.863 506.863 420 540 420C573.137 420 600 446.863 600 480H540H480Z" fill="#FFBE0B"/>
<path d="M480 480H540V540H480V480Z" fill="#FB5607"/>
<path d="M480 480C496.569 480 510 493.431 510 510C510 526.569 496.569 540 480 540V510V480Z" fill="#8338EC"/>
<path d="M540 480H600V540H540V480Z" fill="#FB5607"/>
<path d="M600 480V510H540V480H600Z" fill="#3A86FF"/>
<path d="M480 540H540V600H480V540Z" fill="#8338EC"/>
<path d="M480 540C496.569 540 510 553.431 510 570C510 586.569 496.569 600 480 600V570V540Z" fill="#FB5607"/>
<path d="M540 540H600V600H540V540Z" fill="#FB5607"/>
<path d="M600 540V600L540 540H600Z" fill="#3A86FF"/>
<path d="M0 0H60V60H0V0Z" fill="#8338EC"/>
<path d="M60 0H120V60H60V0Z" fill="#3A86FF"/>
<path d="M120 60H60L120 0V60Z" fill="#8338EC"/>
<path d="M0 60H60V120H0V60Z" fill="#8338EC"/>
<path d="M60 120H0L60 60V120Z" fill="#FB5607"/>
<path d="M60 60H120V120H60V60Z" fill="#3A86FF"/>
<path d="M60 60H120L60 120V60Z" fill="#FF006E"/>
<path d="M0 120H120V240H0V120Z" fill="#FF006E"/>
<path d="M0 240H60V300H0V240Z" fill="#3A86FF"/>
<path d="M0 300L0 240L60 300H0Z" fill="#FFBE0B"/>
<path d="M60 240H120V300H60V240Z" fill="#FB5607"/>
<path d="M120 240V270H60V240H120Z" fill="#FFBE0B"/>
<path d="M0 300H60V360H0V300Z" fill="#FF006E"/>
<path d="M60 300H120V360H60V300Z" fill="#3A86FF"/>
<path d="M0 360H60V420H0V360Z" fill="#8338EC"/>
<path d="M0 420L0 360L60 420H0Z" fill="#FB5607"/>
<path d="M60 360H120V420H60V360Z" fill="#FB5607"/>
<path d="M60 360H120L60 420V360Z" fill="#8338EC"/>
<path d="M0 420H60V480H0V420Z" fill="#8338EC"/>
<path d="M60 420H120V480H60V420Z" fill="#FFBE0B"/>
<path d="M120 480H90V420H120V480Z" fill="#8338EC"/>
<path d="M0 480H120V600H0V480Z" fill="#3A86FF"/>
<path d="M120 480V600L0 480H120Z" fill="#FF006E"/>
<path d="M120 0H240V120H120V0Z" fill="#FB5607"/>
<path d="M240 120H120L240 0V120Z" fill="#FF006E"/>
<path d="M120 120H240V240H120V120Z" fill="#3A86FF"/>
<path d="M120 120C153.137 120 180 146.863 180 180C180 213.137 153.137 240 120 240V180V120Z" fill="#FB5607"/>
<path d="M120 240H240V360H120V240Z" fill="#FB5607"/>
<path d="M240 240V300H120V240H240Z" fill="#FFBE0B"/>
<path d="M120 360H240V480H120V360Z" fill="#FFBE0B"/>
<path d="M120 480C120 446.863 146.863 420 180 420C213.137 420 240 446.863 240 480H180H120Z" fill="#FF006E"/>
<path d="M120 480H240V600H120V480Z" fill="#3A86FF"/>
<path d="M240 0H300V60H240V0Z" fill="#3A86FF"/>
<path d="M300 0V60L240 0L300 0Z" fill="#FF006E"/>
<path d="M300 0H360V60H300V0Z" fill="#FB5607"/>
<path d="M360 0C360 16.5685 346.569 30 330 30C313.431 30 300 16.5685 300 0L330 0L360 0Z" fill="#8338EC"/>
<path d="M240 60H300V120H240V60Z" fill="#8338EC"/>
<path d="M300 60H360V120H300V60Z" fill="#8338EC"/>
<path d="M360 60C360 76.5685 346.569 90 330 90C313.431 90 300 76.5685 300 60H330H360Z" fill="#FFBE0B"/>
<path d="M240 120H360V240H240V120Z" fill="#FB5607"/>
<path d="M360 120C360 153.137 333.137 180 300 180C266.863 180 240 153.137 240 120H300H360Z" fill="#FFBE0B"/>
<path d="M240 240H300V300H240V240Z" fill="#FB5607"/>
<path d="M240 240C256.569 240 270 253.431 270 270C270 286.569 256.569 300 240 300V270V240Z" fill="#3A86FF"/>
<path d="M300 240H360V300H300V240Z" fill="#FB5607"/>
<path d="M300 300V270H360V300H300Z" fill="#FFBE0B"/>
<path d="M240 300H300V360H240V300Z" fill="#8338EC"/>
<path d="M300 360C283.431 360 270 346.569 270 330C270 313.431 283.431 300 300 300V330V360Z" fill="#3A86FF"/>
<path d="M300 300H360V360H300V300Z" fill="#3A86FF"/>
<path d="M360 360H300L360 300V360Z" fill="#FB5607"/>
<path d="M240 360H360V480H240V360Z" fill="#FFBE0B"/>
<path d="M240 360H300V480H240V360Z" fill="#FB5607"/>
<path d="M240 480H360V600H240V480Z" fill="#FB5607"/>
<path d="M360 0H420V60H360V0Z" fill="#3A86FF"/>
<path d="M420 0V60L360 0L420 0Z" fill="#8338EC"/>
<path d="M420 0H480V60H420V0Z" fill="#FF006E"/>
<path d="M480 0V60L420 0L480 0Z" fill="#8338EC"/>
<path d="M360 60H420V120H360V60Z" fill="#3A86FF"/>
<path d="M360 60H420L360 120V60Z" fill="#FF006E"/>
<path d="M420 60H480V120H420V60Z" fill="#8338EC"/>
<path d="M480 60V90H420V60H480Z" fill="#FF006E"/>
<path d="M360 120H480V240H360V120Z" fill="#FFBE0B"/>
<path d="M360 240H480V360H360V240Z" fill="#8338EC"/>
<path d="M360 360H420V420H360V360Z" fill="#FF006E"/>
<path d="M420 360C420 376.569 406.569 390 390 390C373.431 390 360 376.569 360 360H390H420Z" fill="#FFBE0B"/>
<path d="M420 360H480V420H420V360Z" fill="#3A86FF"/>
<path d="M480 360V390H420V360H480Z" fill="#FB5607"/>
<path d="M360 420H420V480H360V420Z" fill="#3A86FF"/>
<path d="M420 420C420 436.569 406.569 450 390 450C373.431 450 360 436.569 360 420H390H420Z" fill="#8338EC"/>
<path d="M420 420H480V480H420V420Z" fill="#FF006E"/>
<path d="M360 480H480V600H360V480Z" fill="#3A86FF"/>
<path d="M360 480C393.137 480 420 506.863 420 540C420 573.137 393.137 600 360 600V540V480Z" fill="#FFBE0B"/>
<path d="M480 0H600V120H480V0Z" fill="#3A86FF"/>
<path d="M600 0V120L480 0L600 0Z" fill="#FFBE0B"/>
<path d="M480 120H600V240H480V120Z" fill="#FF006E"/>
<path d="M480 240C480 206.863 506.863 180 540 180C573.137 180 600 206.863 600 240H540H480Z" fill="#8338EC"/>
<path d="M480 240H540V300H480V240Z" fill="#FF006E"/>
<path d="M540 240V300L480 240H540Z" fill="#8338EC"/>
<path d="M540 240H600V300H540V240Z" fill="#3A86FF"/>
<path d="M600 300C583.431 300 570 286.569 570 270C570 253.431 583.431 240 600 240V270V300Z" fill="#8338EC"/>
<path d="M480 300H540V360H480V300Z" fill="#FFBE0B"/>
<path d="M540 300H600V360H540V300Z" fill="#8338EC"/>
<path d="M600 360C583.431 360 570 346.569 570 330C570 313.431 583.431 300 600 300V330V360Z" fill="#FFBE0B"/>
<path d="M480 360H600V480H480V360Z" fill="#3A86FF"/>
<path d="M480 360H600L480 480V360Z" fill="#FB5607"/>
<path d="M480 480H600V600H480V480Z" fill="#3A86FF"/>
<path d="M480 480C513.137 480 540 506.863 540 540C540 573.137 513.137 600 480 600V540V480Z" fill="#8338EC"/>
<path d="M0 0H120V120H0V0Z" fill="#8338EC"/>
<path d="M120 0V120L0 0L120 0Z" fill="#FB5607"/>
<path d="M0 120H120V240H0V120Z" fill="#FF006E"/>
<path d="M120 240H0L120 120V240Z" fill="#8338EC"/>
<path d="M0 240H60V300H0V240Z" fill="#8338EC"/>
<path d="M60 240H120V300H60V240Z" fill="#FB5607"/>
<path d="M120 300H90V240H120V300Z" fill="#FFBE0B"/>
<path d="M0 300H60V360H0V300Z" fill="#FB5607"/>
<path d="M0 300H30V360H0V300Z" fill="#8338EC"/>
<path d="M60 300H120V360H60V300Z" fill="#FB5607"/>
<path d="M120 300V330H60V300H120Z" fill="#8338EC"/>
<path d="M0 360H120V480H0V360Z" fill="#FB5607"/>
<path d="M0 480H60V540H0V480Z" fill="#8338EC"/>
<path d="M60 540H0L60 480V540Z" fill="#FF006E"/>
<path d="M60 480H120V540H60V480Z" fill="#8338EC"/>
<path d="M120 480V540L60 480H120Z" fill="#FB5607"/>
<path d="M0 540H60V600H0V540Z" fill="#8338EC"/>
<path d="M0 540H30V600H0V540Z" fill="#FFBE0B"/>
<path d="M60 540H120V600H60V540Z" fill="#FFBE0B"/>
<path d="M120 540V570H60V540H120Z" fill="#3A86FF"/>
<path d="M120 0H180V60H120V0Z" fill="#8338EC"/>
<path d="M180 0H240V60H180V0Z" fill="#8338EC"/>
<path d="M240 0V30H180V0L240 0Z" fill="#FFBE0B"/>
<path d="M120 60H180V120H120V60Z" fill="#3A86FF"/>
<path d="M180 120C163.431 120 150 106.569 150 90C150 73.4315 163.431 60 180 60V90V120Z" fill="#FB5607"/>
<path d="M180 60H240V120H180V60Z" fill="#FF006E"/>
<path d="M180 60H210V120H180V60Z" fill="#3A86FF"/>
<path d="M120 120H240V240H120V120Z" fill="#FFBE0B"/>
<path d="M120 120H180V240H120V120Z" fill="#3A86FF"/>
<path d="M120 240H240V360H120V240Z" fill="#8338EC"/>
<path d="M240 240V360L120 240H240Z" fill="#FB5607"/>
<path d="M120 360H240V480H120V360Z" fill="#FF006E"/>
<path d="M120 480C120 446.863 146.863 420 180 420C213.137 420 240 446.863 240 480H180H120Z" fill="#FB5607"/>
<path d="M120 480H180V540H120V480Z" fill="#FF006E"/>
<path d="M180 540H150V480H180V540Z" fill="#8338EC"/>
<path d="M180 480H240V540H180V480Z" fill="#8338EC"/>
<path d="M120 540H180V600H120V540Z" fill="#FFBE0B"/>
<path d="M180 600H120L180 540V600Z" fill="#FF006E"/>
<path d="M180 540H240V600H180V540Z" fill="#8338EC"/>
<path d="M180 600V540L240 600H180Z" fill="#3A86FF"/>
<path d="M240 0H300V60H240V0Z" fill="#FB5607"/>
<path d="M300 60C283.431 60 270 46.5685 270 30C270 13.4315 283.431 0 300 0V30V60Z" fill="#FFBE0B"/>
<path d="M300 0H360V60H300V0Z" fill="#8338EC"/>
<path d="M240 60H300V120H240V60Z" fill="#FF006E"/>
<path d="M240 120C240 103.431 253.431 90 270 90C286.569 90 300 103.431 300 120H270H240Z" fill="#8338EC"/>
<path d="M300 60H360V120H300V60Z" fill="#8338EC"/>
<path d="M300 60H330V120H300V60Z" fill="#3A86FF"/>
<path d="M240 120H300V180H240V120Z" fill="#3A86FF"/>
<path d="M300 120V180L240 120H300Z" fill="#8338EC"/>
<path d="M300 120H360V180H300V120Z" fill="#8338EC"/>
<path d="M360 120V150H300V120H360Z" fill="#FFBE0B"/>
<path d="M240 180H300V240H240V180Z" fill="#3A86FF"/>
<path d="M240 240V180L300 240H240Z" fill="#8338EC"/>
<path d="M300 180H360V240H300V180Z" fill="#FB5607"/>
<path d="M300 240V210H360V240H300Z" fill="#8338EC"/>
<path d="M240 240H300V300H240V240Z" fill="#FB5607"/>
<path d="M300 240C300 256.569 286.569 270 270 270C253.431 270 240 256.569 240 240H270H300Z" fill="#FFBE0B"/>
<path d="M300 240H360V300H300V240Z" fill="#FFBE0B"/>
<path d="M360 300H300L360 240V300Z" fill="#3A86FF"/>
<path d="M240 300H300V360H240V300Z" fill="#FB5607"/>
<path d="M240 360V300L300 360H240Z" fill="#FFBE0B"/>
<path d="M300 300H360V360H300V300Z" fill="#FF006E"/>
<path d="M300 360V330H360V360H300Z" fill="#8338EC"/>
<path d="M240 360H360V480H240V360Z" fill="#FFBE0B"/>
<path d="M240 360H300V480H240V360Z" fill="#3A86FF"/>
<path d="M240 480H360V600H240V480Z" fill="#FFBE0B"/>
<path d="M360 480V600L240 480H360Z" fill="#FF006E"/>
<path d="M360 0H420V60H360V0Z" fill="#FF006E"/>
<path d="M360 60V30H420V60H360Z" fill="#8338EC"/>
<path d="M420 0H480V60H420V0Z" fill="#3A86FF"/>
<path d="M480 0C480 16.5685 466.569 30 450 30C433.431 30 420 16.5685 420 0L450 0L480 0Z" fill="#FFBE0B"/>
<path d="M360 60H420V120H360V60Z" fill="#FB5607"/>
<path d="M420 120C403.431 120 390 106.569 390 90C390 73.4315 403.431 60 420 60V90V120Z" fill="#FF006E"/>
<path d="M420 60H480V120H420V60Z" fill="#FFBE0B"/>
<path d="M360 120H480V240H360V120Z" fill="#3A86FF"/>
<path d="M480 240C446.863 240 420 213.137 420 180C420 146.863 446.863 120 480 120V180V240Z" fill="#FB5607"/>
<path d="M360 240H480V360H360V240Z" fill="#8338EC"/>
<path d="M360 240H420V360H360V240Z" fill="#FF006E"/>
<path d="M360 360H420V420H360V360Z" fill="#3A86FF"/>
<path d="M420 360C420 376.569 406.569 390 390 390C373.431 390 360 376.569 360 360H390H420Z" fill="#FB5607"/>
<path d="M420 360H480V420H420V360Z" fill="#FFBE0B"/>
<path d="M420 360H480L420 420V360Z" fill="#FF006E"/>
<path d="M360 420H420V480H360V420Z" fill="#8338EC"/>
<path d="M420 420C420 436.569 406.569 450 390 450C373.431 450 360 436.569 360 420H390H420Z" fill="#3A86FF"/>
<path d="M420 420H480V480H420V420Z" fill="#FF006E"/>
<path d="M480 420V450H420V420H480Z" fill="#FB5607"/>
<path d="M360 480H420V540H360V480Z" fill="#3A86FF"/>
<path d="M360 480C376.569 480 390 493.431 390 510C390 526.569 376.569 540 360 540V510V480Z" fill="#FF006E"/>
<path d="M420 480H480V540H420V480Z" fill="#FF006E"/>
<path d="M420 480H450V540H420V480Z" fill="#FFBE0B"/>
<path d="M360 540H420V600H360V540Z" fill="#3A86FF"/>
<path d="M420 600C403.431 600 390 586.569 390 570C390 553.431 403.431 540 420 540V570V600Z" fill="#8338EC"/>
<path d="M420 540H480V600H420V540Z" fill="#FF006E"/>
<path d="M480 0H600V120H480V0Z" fill="#FF006E"/>
<path d="M600 120C566.863 120 540 93.1371 540 60C540 26.8629 566.863 0 600 0V60V120Z" fill="#FFBE0B"/>
<path d="M480 120H540V180H480V120Z" fill="#FB5607"/>
<path d="M540 120C540 136.569 526.569 150 510 150C493.431 150 480 136.569 480 120H510H540Z" fill="#FF006E"/>
<path d="M540 120H600V180H540V120Z" fill="#FF006E"/>
<path d="M600 180H570V120H600V180Z" fill="#FB5607"/>
<path d="M480 180H540V240H480V180Z" fill="#FB5607"/>
<path d="M480 240V180L540 240H480Z" fill="#FFBE0B"/>
<path d="M540 180H600V240H540V180Z" fill="#FFBE0B"/>
<path d="M540 180C556.569 180 570 193.431 570 210C570 226.569 556.569 240 540 240V210V180Z" fill="#FB5607"/>
<path d="M480 240H540V300H480V240Z" fill="#FB5607"/>
<path d="M540 240H600V300H540V240Z" fill="#FF006E"/>
<path d="M600 240V270H540V240H600Z" fill="#FFBE0B"/>
<path d="M480 300H540V360H480V300Z" fill="#FF006E"/>
<path d="M540 360H480L540 300V360Z" fill="#FFBE0B"/>
<path d="M540 300H600V360H540V300Z" fill="#FFBE0B"/>
<path d="M600 300V330H540V300H600Z" fill="#3A86FF"/>
<path d="M480 360H600V480H480V360Z" fill="#FB5607"/>
<path d="M600 360V480L480 360H600Z" fill="#8338EC"/>
<path d="M480 480H600V600H480V480Z" fill="#FFBE0B"/>
<path d="M480 600V480L600 600H480Z" fill="#8338EC"/>
<path d="M0 0H60V60H0V0Z" fill="#FFBE0B"/>
<path d="M60 0V60L0 0L60 0Z" fill="#8338EC"/>
<path d="M60 0H120V60H60V0Z" fill="#8338EC"/>
<path d="M120 0C120 16.5685 106.569 30 90 30C73.4315 30 60 16.5685 60 0L90 0L120 0Z" fill="#FFBE0B"/>
<path d="M0 60H60V120H0V60Z" fill="#FFBE0B"/>
<path d="M0 60H60L0 120V60Z" fill="#FB5607"/>
<path d="M60 60H120V120H60V60Z" fill="#FF006E"/>
<path d="M120 120H60L120 60V120Z" fill="#FB5607"/>
<path d="M0 120H60V180H0V120Z" fill="#FB5607"/>
<path d="M60 120H120V180H60V120Z" fill="#FB5607"/>
<path d="M120 180H60L120 120V180Z" fill="#FF006E"/>
<path d="M0 180H60V240H0V180Z" fill="#FFBE0B"/>
<path d="M60 180V210H0L0 180H60Z" fill="#FF006E"/>
<path d="M60 180H120V240H60V180Z" fill="#3A86FF"/>
<path d="M60 240C60 223.431 73.4315 210 90 210C106.569 210 120 223.431 120 240H90H60Z" fill="#8338EC"/>
<path d="M0 240H120V360H0V240Z" fill="#3A86FF"/>
<path d="M0 360H120V480H0V360Z" fill="#FB5607"/>
<path d="M0 480H60V540H0V480Z" fill="#3A86FF"/>
<path d="M60 540C43.4315 540 30 526.569 30 510C30 493.431 43.4315 480 60 480V510V540Z" fill="#8338EC"/>
<path d="M60 480H120V540H60V480Z" fill="#FB5607"/>
<path d="M60 480H120L60 540V480Z" fill="#3A86FF"/>
<path d="M0 540H60V600H0V540Z" fill="#3A86FF"/>
<path d="M0 600L0 540L60 600H0Z" fill="#8338EC"/>
<path d="M60 540H120V600H60V540Z" fill="#3A86FF"/>
<path d="M120 540V600L60 540H120Z" fill="#FF006E"/>
<path d="M120 0H180V60H120V0Z" fill="#8338EC"/>
<path d="M180 0C180 16.5685 166.569 30 150 30C133.431 30 120 16.5685 120 0L150 0L180 0Z" fill="#3A86FF"/>
<path d="M180 0H240V60H180V0Z" fill="#FFBE0B"/>
<path d="M240 60H180L240 0V60Z" fill="#FF006E"/>
<path d="M120 60H180V120H120V60Z" fill="#3A86FF"/>
<path d="M180 60V120L120 60H180Z" fill="#FFBE0B"/>
<path d="M180 60H240V120H180V60Z" fill="#FFBE0B"/>
<path d="M120 120H240V240H120V120Z" fill="#8338EC"/>
<path d="M240 240C206.863 240 180 213.137 180 180C180 146.863 206.863 120 240 120V180V240Z" fill="#FB5607"/>
<path d="M120 240H180V300H120V240Z" fill="#8338EC"/>
<path d="M180 300H120L180 240V300Z" fill="#FFBE0B"/>
<path d="M180 240H240V300H180V240Z" fill="#FF006E"/>
<path d="M180 300C180 283.431 193.431 270 210 270C226.569 270 240 283.431 240 300H210H180Z" fill="#3A86FF"/>
<path d="M120 300H180V360H120V300Z" fill="#FF006E"/>
<path d="M180 360H150V300H180V360Z" fill="#FFBE0B"/>
<path d="M180 300H240V360H180V300Z" fill="#FF006E"/>
<path d="M180 300H240L180 360V300Z" fill="#FFBE0B"/>
<path d="M120 360H180V420H120V360Z" fill="#FF006E"/>
<path d="M180 360V390H120V360H180Z" fill="#FB5607"/>
<path d="M180 360H240V420H180V360Z" fill="#FF006E"/>
<path d="M120 420H180V480H120V420Z" fill="#8338EC"/>
<path d="M180 420H240V480H180V420Z" fill="#3A86FF"/>
<path d="M240 420V450H180V420H240Z" fill="#FFBE0B"/>
<path d="M120 480H180V540H120V480Z" fill="#FFBE0B"/>
<path d="M180 480V540L120 480H180Z" fill="#FF006E"/>
<path d="M180 480H240V540H180V480Z" fill="#FF006E"/>
<path d="M180 540V480L240 540H180Z" fill="#8338EC"/>
<path d="M120 540H180V600H120V540Z" fill="#FF006E"/>
<path d="M180 600C163.431 600 150 586.569 150 570C150 553.431 163.431 540 180 540V570V600Z" fill="#FFBE0B"/>
<path d="M180 540H240V600H180V540Z" fill="#FB5607"/>
<path d="M240 540V600L180 540H240Z" fill="#3A86FF"/>
<path d="M240 0H360V120H240V0Z" fill="#3A86FF"/>
<path d="M360 0V120L240 0L360 0Z" fill="#FFBE0B"/>
<path d="M240 120H360V240H240V120Z" fill="#FFBE0B"/>
<path d="M240 120C273.137 120 300 146.863 300 180C300 213.137 273.137 240 240 240V180V120Z" fill="#FB5607"/>
<path d="M240 240H360V360H240V240Z" fill="#FB5607"/>
<path d="M360 360C326.863 360 300 333.137 300 300C300 266.863 326.863 240 360 240V300V360Z" fill="#FF006E"/>
<path d="M240 360H300V420H240V360Z" fill="#8338EC"/>
<path d="M240 360H270V420H240V360Z" fill="#FB5607"/>
<path d="M300 360H360V420H300V360Z" fill="#8338EC"/>
<path d="M360 360V420L300 360H360Z" fill="#FF006E"/>
<path d="M240 420H300V480H240V420Z" fill="#8338EC"/>
<path d="M240 480C240 463.431 253.431 450 270 450C286.569 450 300 463.431 300 480H270H240Z" fill="#FF006E"/>
<path d="M300 420H360V480H300V420Z" fill="#FFBE0B"/>
<path d="M360 420V480L300 420H360Z" fill="#8338EC"/>
<path d="M240 480H360V600H240V480Z" fill="#FB5607"/>
<path d="M360 0H420V60H360V0Z" fill="#FB5607"/>
<path d="M420 0V30H360V0L420 0Z" fill="#FFBE0B"/>
<path d="M420 0H480V60H420V0Z" fill="#8338EC"/>
<path d="M420 0H480L420 60V0Z" fill="#FFBE0B"/>
<path d="M360 60H420V120H360V60Z" fill="#FB5607"/>
<path d="M420 60V120L360 60H420Z" fill="#FFBE0B"/>
<path d="M420 60H480V120H420V60Z" fill="#3A86FF"/>
<path d="M420 60H450V120H420V60Z" fill="#FFBE0B"/>
<path d="M360 120H420V180H360V120Z" fill="#3A86FF"/>
<path d="M360 180V120L420 180H360Z" fill="#FF006E"/>
<path d="M420 120H480V180H420V120Z" fill="#FFBE0B"/>
<path d="M420 180C420 163.431 433.431 150 450 150C466.569 150 480 163.431 480 180H450H420Z" fill="#FB5607"/>
<path d="M360 180H420V240H360V180Z" fill="#FF006E"/>
<path d="M420 240H360L420 180V240Z" fill="#8338EC"/>
<path d="M420 180H480V240H420V180Z" fill="#3A86FF"/>
<path d="M420 240C420 223.431 433.431 210 450 210C466.569 210 480 223.431 480 240H450H420Z" fill="#FB5607"/>
<path d="M360 240H420V300H360V240Z" fill="#8338EC"/>
<path d="M420 300H360L420 240V300Z" fill="#3A86FF"/>
<path d="M420 240H480V300H420V240Z" fill="#3A86FF"/>
<path d="M480 240V300L420 240H480Z" fill="#8338EC"/>
<path d="M360 300H420V360H360V300Z" fill="#8338EC"/>
<path d="M360 300C376.569 300 390 313.431 390 330C390 346.569 376.569 360 360 360V330V300Z" fill="#3A86FF"/>
<path d="M420 300H480V360H420V300Z" fill="#3A86FF"/>
<path d="M480 360C463.431 360 450 346.569 450 330C450 313.431 463.431 300 480 300V330V360Z" fill="#FFBE0B"/>
<path d="M360 360H480V480H360V360Z" fill="#8338EC"/>
<path d="M360 360H420V480H360V360Z" fill="#FFBE0B"/>
<path d="M360 480H420V540H360V480Z" fill="#3A86FF"/>
<path d="M420 480V540L360 480H420Z" fill="#FF006E"/>
<path d="M420 480H480V540H420V480Z" fill="#8338EC"/>
<path d="M360 540H420V600H360V540Z" fill="#FFBE0B"/>
<path d="M360 540H390V600H360V540Z" fill="#FF006E"/>
<path d="M420 540H480V600H420V540Z" fill="#3A86FF"/>
<path d="M480 600H450V540H480V600Z" fill="#FF006E"/>
<path d="M480 0H600V120H480V0Z" fill="#FFBE0B"/>
<path d="M600 0V120L480 0L600 0Z" fill="#3A86FF"/>
<path d="M480 120H540V180H480V120Z" fill="#FF006E"/>
<path d="M480 120H510V180H480V120Z" fill="#8338EC"/>
<path d="M540 120H600V180H540V120Z" fill="#FFBE0B"/>
<path d="M480 180H540V240H480V180Z" fill="#FB5607"/>
<path d="M540 180H600V240H540V180Z" fill="#FB5607"/>
<path d="M600 180C600 196.569 586.569 210 570 210C553.431 210 540 196.569 540 180H570H600Z" fill="#8338EC"/>
<path d="M480 240H600V360H480V240Z" fill="#8338EC"/>
<path d="M480 360C480 326.863 506.863 300 540 300C573.137 300 600 326.863 600 360H540H480Z" fill="#FFBE0B"/>
<path d="M480 360H540V420H480V360Z" fill="#8338EC"/>
<path d="M480 360H540L480 420V360Z" fill="#FB5607"/>
<path d="M540 360H600V420H540V360Z" fill="#FFBE0B"/>
<path d="M600 420H570V360H600V420Z" fill="#8338EC"/>
<path d="M480 420H540V480H480V420Z" fill="#FF006E"/>
<path d="M540 420C540 436.569 526.569 450 510 450C493.431 450 480 436.569 480 420H510H540Z" fill="#FB5607"/>
<path d="M540 420H600V480H540V420Z" fill="#FFBE0B"/>
<path d="M600 480H570V420H600V480Z" fill="#8338EC"/>
<path d="M480 480H540V540H480V480Z" fill="#3A86FF"/>
<path d="M540 480V510H480V480H540Z" fill="#FB5607"/>
<path d="M540 480H600V540H540V480Z" fill="#FB5607"/>
<path d="M480 540H540V600H480V540Z" fill="#FFBE0B"/>
<path d="M540 540H600V600H540V540Z" fill="#8338EC"/>
<path d="M0 0H60V60H0V0Z" fill="#3A86FF"/>
<path d="M0 60L0 30H60V60H0Z" fill="#FB5607"/>
<path d="M60 0H120V60H60V0Z" fill="#FF006E"/>
<path d="M60 60V0L120 60H60Z" fill="#FB5607"/>
<path d="M0 60H60V120H0V60Z" fill="#3A86FF"/>
<path d="M60 60V120L0 60H60Z" fill="#8338EC"/>
<path d="M60 60H120V120H60V60Z" fill="#FB5607"/>
<path d="M60 120V90H120V120H60Z" fill="#FF006E"/>
<path d="M0 120H120V240H0V120Z" fill="#8338EC"/>
<path d="M0 240L0 180H120V240H0Z" fill="#FB5607"/>
<path d="M0 240H60V300H0V240Z" fill="#FFBE0B"/>
<path d="M60 300H30V240H60V300Z" fill="#FB5607"/>
<path d="M60 240H120V300H60V240Z" fill="#FF006E"/>
<path d="M120 240V300L60 240H120Z" fill="#8338EC"/>
<path d="M0 300H60V360H0V300Z" fill="#FF006E"/>
<path d="M60 360H0L60 300V360Z" fill="#FFBE0B"/>
<path d="M60 300H120V360H60V300Z" fill="#FFBE0B"/>
<path d="M60 360C60 343.431 73.4315 330 90 330C106.569 330 120 343.431 120 360H90H60Z" fill="#FF006E"/>
<path d="M0 360H60V420H0V360Z" fill="#8338EC"/>
<path d="M60 360V390H0L0 360H60Z" fill="#FF006E"/>
<path d="M60 360H120V420H60V360Z" fill="#FF006E"/>
<path d="M120 360V390H60V360H120Z" fill="#3A86FF"/>
<path d="M0 420H60V480H0V420Z" fill="#3A86FF"/>
<path d="M0 420H60L0 480V420Z" fill="#FF006E"/>
<path d="M60 420H120V480H60V420Z" fill="#FB5607"/>
<path d="M120 420C120 436.569 106.569 450 90 450C73.4315 450 60 436.569 60 420H90H120Z" fill="#3A86FF"/>
<path d="M0 480H60V540H0V480Z" fill="#FFBE0B"/>
<path d="M60 480V510H0L0 480H60Z" fill="#FB5607"/>
<path d="M60 480H120V540H60V480Z" fill="#FF006E"/>
<path d="M0 540H60V600H0V540Z" fill="#3A86FF"/>
<path d="M60 540V570H0L0 540H60Z" fill="#FFBE0B"/>
<path d="M60 540H120V600H60V540Z" fill="#3A86FF"/>
<path d="M60 540H90V600H60V540Z" fill="#8338EC"/>
<path d="M120 0H180V60H120V0Z" fill="#8338EC"/>
<path d="M180 0V30H120V0L180 0Z" fill="#FB5607"/>
<path d="M180 0H240V60H180V0Z" fill="#FFBE0B"/>
<path d="M120 60H180V120H120V60Z" fill="#FF006E"/>
<path d="M120 120C120 103.431 133.431 90 150 90C166.569 90 180 103.431 180 120H150H120Z" fill="#3A86FF"/>
<path d="M180 60H240V120H180V60Z" fill="#FB5607"/>
<path d="M180 60H210V120H180V60Z" fill="#8338EC"/>
<path d="M120 120H180V180H120V120Z" fill="#FB5607"/>
<path d="M180 120H240V180H180V120Z" fill="#FF006E"/>
<path d="M240 120V180L180 120H240Z" fill="#8338EC"/>
<path d="M120 180H180V240H120V180Z" fill="#FFBE0B"/>
<path d="M120 180H180L120 240V180Z" fill="#FB5607"/>
<path d="M180 180H240V240H180V180Z" fill="#FFBE0B"/>
<path d="M180 180H210V240H180V180Z" fill="#FF006E"/>
<path d="M120 240H240V360H120V240Z" fill="#FF006E"/>
<path d="M240 360H120L240 240V360Z" fill="#FB5607"/>
<path d="M120 360H240V480H120V360Z" fill="#FFBE0B"/>
<path d="M120 480V420H240V480H120Z" fill="#8338EC"/>
<path d="M120 480H240V600H120V480Z" fill="#8338EC"/>
<path d="M120 480C153.137 480 180 506.863 180 540C180 573.137 153.137 600 120 600V540V480Z" fill="#3A86FF"/>
<path d="M240 0H360V120H240V0Z" fill="#FFBE0B"/>
<path d="M360 120H300V0L360 0V120Z" fill="#8338EC"/>
<path d="M240 120H360V240H240V120Z" fill="#3A86FF"/>
<path d="M360 120V240L240 120H360Z" fill="#FB5607"/>
<path d="M240 240H300V300H240V240Z" fill="#FB5607"/>
<path d="M300 300H270V240H300V300Z" fill="#FF006E"/>
<path d="M300 240H360V300H300V240Z" fill="#FFBE0B"/>
<path d="M300 240H360L300 300V240Z" fill="#FB5607"/>
<path d="M240 300H300V360H240V300Z" fill="#FFBE0B"/>
<path d="M300 300V360L240 300H300Z" fill="#FF006E"/>
<path d="M300 300H360V360H300V300Z" fill="#8338EC"/>
<path d="M360 360C343.431 360 330 346.569 330 330C330 313.431 343.431 300 360 300V330V360Z" fill="#3A86FF"/>
<path d="M240 360H360V480H240V360Z" fill="#3A86FF"/>
<path d="M360 480H300V360H360V480Z" fill="#FF006E"/>
<path d="M240 480H300V540H240V480Z" fill="#8338EC"/>
<path d="M240 540V480L300 540H240Z" fill="#FF006E"/>
<path d="M300 480H360V540H300V480Z" fill="#FF006E"/>
<path d="M360 540C343.431 540 330 526.569 330 510C330 493.431 343.431 480 360 480V510V540Z" fill="#FFBE0B"/>
<path d="M240 540H300V600H240V540Z" fill="#3A86FF"/>
<path d="M240 600V570H300V600H240Z" fill="#FFBE0B"/>
<path d="M300 540H360V600H300V540Z" fill="#FB5607"/>
<path d="M360 0H420V60H360V0Z" fill="#3A86FF"/>
<path d="M420 60H390V0L420 0V60Z" fill="#FFBE0B"/>
<path d="M420 0H480V60H420V0Z" fill="#FFBE0B"/>
<path d="M480 0V60L420 0L480 0Z" fill="#8338EC"/>
<path d="M360 60H420V120H360V60Z" fill="#3A86FF"/>
<path d="M420 120H390V60H420V120Z" fill="#FF006E"/>
<path d="M420 60H480V120H420V60Z" fill="#3A86FF"/>
<path d="M420 120V60L480 120H420Z" fill="#FFBE0B"/>
<path d="M360 120H480V240H360V120Z" fill="#FB5607"/>
<path d="M480 240H360L480 120V240Z" fill="#FF006E"/>
<path d="M360 240H480V360H360V240Z" fill="#8338EC"/>
<path d="M360 360V300H480V360H360Z" fill="#FF006E"/>
<path d="M360 360H420V420H360V360Z" fill="#3A86FF"/>
<path d="M360 360H390V420H360V360Z" fill="#FFBE0B"/>
<path d="M420 360H480V420H420V360Z" fill="#FF006E"/>
<path d="M420 360H450V420H420V360Z" fill="#3A86FF"/>
<path d="M360 420H420V480H360V420Z" fill="#FFBE0B"/>
<path d="M360 480C360 463.431 373.431 450 390 450C406.569 450 420 463.431 420 480H390H360Z" fill="#FB5607"/>
<path d="M420 420H480V480H420V420Z" fill="#3A86FF"/>
<path d="M480 420V450H420V420H480Z" fill="#FFBE0B"/>
<path d="M360 480H420V540H360V480Z" fill="#8338EC"/>
<path d="M420 480H480V540H420V480Z" fill="#FFBE0B"/>
<path d="M360 540H420V600H360V540Z" fill="#3A86FF"/>
<path d="M420 600H360L420 540V600Z" fill="#8338EC"/>
<path d="M420 540H480V600H420V540Z" fill="#FB5607"/>
<path d="M480 600H450V540H480V600Z" fill="#8338EC"/>
<path d="M480 0H600V120H480V0Z" fill="#8338EC"/>
<path d="M480 120H540V180H480V120Z" fill="#FFBE0B"/>
<path d="M480 180V150H540V180H480Z" fill="#8338EC"/>
<path d="M540 120H600V180H540V120Z" fill="#FF006E"/>
<path d="M540 120C556.569 120 570 133.431 570 150C570 166.569 556.569 180 540 180V150V120Z" fill="#8338EC"/>
<path d="M480 180H540V240H480V180Z" fill="#FB5607"/>
<path d="M540 240H480L540 180V240Z" fill="#3A86FF"/>
<path d="M540 180H600V240H540V180Z" fill="#8338EC"/>
<path d="M480 240H600V360H480V240Z" fill="#8338EC"/>
<path d="M480 360V240L600 360H480Z" fill="#FF006E"/>
<path d="M480 360H600V480H480V360Z" fill="#3A86FF"/>
<path d="M480 480V420H600V480H480Z" fill="#FFBE0B"/>
<path d="M480 480H540V540H480V480Z" fill="#FFBE0B"/>
<path d="M540 480V510H480V480H540Z" fill="#FF006E"/>
<path d="M540 480H600V540H540V480Z" fill="#FFBE0B"/>
<path d="M600 480C600 496.569 586.569 510 570 510C553.431 510 540 496.569 540 480H570H600Z" fill="#FF006E"/>
<path d="M480 540H540V600H480V540Z" fill="#FB5607"/>
<path d="M480 540H510V600H480V540Z" fill="#FFBE0B"/>
<path d="M540 540H600V600H540V540Z" fill="#3A86FF"/>
<path d="M0 0H120V120H0V0Z" fill="#FF006E"/>
<path d="M0 120H120V240H0V120Z" fill="#FFBE0B"/>
<path d="M0 240H60V300H0V240Z" fill="#FB5607"/>
<path d="M60 240H120V300H60V240Z" fill="#FF006E"/>
<path d="M120 240V270H60V240H120Z" fill="#FB5607"/>
<path d="M0 300H60V360H0V300Z" fill="#FB5607"/>
<path d="M60 300V360L0 300H60Z" fill="#3A86FF"/>
<path d="M60 300H120V360H60V300Z" fill="#8338EC"/>
<path d="M120 300V330H60V300H120Z" fill="#FF006E"/>
<path d="M0 360H60V420H0V360Z" fill="#3A86FF"/>
<path d="M60 360C60 376.569 46.5685 390 30 390C13.4315 390 0 376.569 0 360H30H60Z" fill="#FF006E"/>
<path d="M60 360H120V420H60V360Z" fill="#3A86FF"/>
<path d="M60 360H90V420H60V360Z" fill="#FF006E"/>
<path d="M0 420H60V480H0V420Z" fill="#FFBE0B"/>
<path d="M60 480H0L60 420V480Z" fill="#FF006E"/>
<path d="M60 420H120V480H60V420Z" fill="#FF006E"/>
<path d="M60 420H90V480H60V420Z" fill="#FFBE0B"/>
<path d="M0 480H60V540H0V480Z" fill="#3A86FF"/>
<path d="M0 540L0 480L60 540H0Z" fill="#FF006E"/>
<path d="M60 480H120V540H60V480Z" fill="#8338EC"/>
<path d="M60 540V510H120V540H60Z" fill="#3A86FF"/>
<path d="M0 540H60V600H0V540Z" fill="#8338EC"/>
<path d="M60 540H120V600H60V540Z" fill="#FFBE0B"/>
<path d="M120 0H180V60H120V0Z" fill="#FB5607"/>
<path d="M180 0C180 16.5685 166.569 30 150 30C133.431 30 120 16.5685 120 0L150 0L180 0Z" fill="#8338EC"/>
<path d="M180 0H240V60H180V0Z" fill="#8338EC"/>
<path d="M240 60H180L240 0V60Z" fill="#3A86FF"/>
<path d="M120 60H180V120H120V60Z" fill="#8338EC"/>
<path d="M180 60V90H120V60H180Z" fill="#FB5607"/>
<path d="M180 60H240V120H180V60Z" fill="#FF006E"/>
<path d="M240 120H180L240 60V120Z" fill="#8338EC"/>
<path d="M120 120H240V240H120V120Z" fill="#8338EC"/>
<path d="M120 120H180V240H120V120Z" fill="#FB5607"/>
<path d="M120 240H180V300H120V240Z" fill="#FF006E"/>
<path d="M180 300H150V240H180V300Z" fill="#FB5607"/>
<path d="M180 240H240V300H180V240Z" fill="#FB5607"/>
<path d="M180 300V270H240V300H180Z" fill="#8338EC"/>
<path d="M120 300H180V360H120V300Z" fill="#FFBE0B"/>
<path d="M120 300H180L120 360V300Z" fill="#8338EC"/>
<path d="M180 300H240V360H180V300Z" fill="#FB5607"/>
<path d="M240 300V330H180V300H240Z" fill="#3A86FF"/>
<path d="M120 360H180V420H120V360Z" fill="#FFBE0B"/>
<path d="M180 360V390H120V360H180Z" fill="#FB5607"/>
<path d="M180 360H240V420H180V360Z" fill="#FF006E"/>
<path d="M120 420H180V480H120V420Z" fill="#FB5607"/>
<path d="M180 480C163.431 480 150 466.569 150 450C150 433.431 163.431 420 180 420V450V480Z" fill="#3A86FF"/>
<path d="M180 420H240V480H180V420Z" fill="#3A86FF"/>
<path d="M240 420C240 436.569 226.569 450 210 450C193.431 450 180 436.569 180 420H210H240Z" fill="#FFBE0B"/>
<path d="M120 480H180V540H120V480Z" fill="#FFBE0B"/>
<path d="M180 480H240V540H180V480Z" fill="#FB5607"/>
<path d="M180 480H240L180 540V480Z" fill="#FFBE0B"/>
<path d="M120 540H180V600H120V540Z" fill="#FF006E"/>
<path d="M180 540V570H120V540H180Z" fill="#3A86FF"/>
<path d="M180 540H240V600H180V540Z" fill="#8338EC"/>
<path d="M240 0H360V120H240V0Z" fill="#FF006E"/>
<path d="M240 120H360V240H240V120Z" fill="#FFBE0B"/>
<path d="M240 240H300V300H240V240Z" fill="#FB5607"/>
<path d="M300 240H360V300H300V240Z" fill="#3A86FF"/>
<path d="M240 300H300V360H240V300Z" fill="#3A86FF"/>
<path d="M300 300V360L240 300H300Z" fill="#FFBE0B"/>
<path d="M300 300H360V360H300V300Z" fill="#8338EC"/>
<path d="M300 360C300 343.431 313.431 330 330 330C346.569 330 360 343.431 360 360H330H300Z" fill="#FF006E"/>
<path d="M240 360H300V420H240V360Z" fill="#3A86FF"/>
<path d="M240 360H300L240 420V360Z" fill="#FB5607"/>
<path d="M300 360H360V420H300V360Z" fill="#FFBE0B"/>
<path d="M300 360H360L300 420V360Z" fill="#3A86FF"/>
<path d="M240 420H300V480H240V420Z" fill="#FB5607"/>
<path d="M300 420V480L240 420H300Z" fill="#FFBE0B"/>
<path d="M300 420H360V480H300V420Z" fill="#FB5607"/>
<path d="M360 420V450H300V420H360Z" fill="#3A86FF"/>
<path d="M240 480H360V600H240V480Z" fill="#3A86FF"/>
<path d="M240 600V480L360 600H240Z" fill="#FFBE0B"/>
<path d="M360 0H420V60H360V0Z" fill="#8338EC"/>
<path d="M420 0V60L360 0L420 0Z" fill="#FFBE0B"/>
<path d="M420 0H480V60H420V0Z" fill="#3A86FF"/>
<path d="M420 0H450V60H420V0Z" fill="#FFBE0B"/>
<path d="M360 60H420V120H360V60Z" fill="#8338EC"/>
<path d="M420 60V120L360 60H420Z" fill="#FFBE0B"/>
<path d="M420 60H480V120H420V60Z" fill="#8338EC"/>
<path d="M420 60H480L420 120V60Z" fill="#3A86FF"/>
<path d="M360 120H420V180H360V120Z" fill="#FF006E"/>
<path d="M420 180C403.431 180 390 166.569 390 150C390 133.431 403.431 120 420 120V150V180Z" fill="#FB5607"/>
<path d="M420 120H480V180H420V120Z" fill="#FF006E"/>
<path d="M480 120V150H420V120H480Z" fill="#FFBE0B"/>
<path d="M360 180H420V240H360V180Z" fill="#FB5607"/>
<path d="M420 240H390V180H420V240Z" fill="#FF006E"/>
<path d="M420 180H480V240H420V180Z" fill="#8338EC"/>
<path d="M420 240C420 223.431 433.431 210 450 210C466.569 210 480 223.431 480 240H450H420Z" fill="#FFBE0B"/>
<path d="M360 240H420V300H360V240Z" fill="#FB5607"/>
<path d="M360 240C376.569 240 390 253.431 390 270C390 286.569 376.569 300 360 300V270V240Z" fill="#8338EC"/>
<path d="M420 240H480V300H420V240Z" fill="#FF006E"/>
<path d="M480 300H450V240H480V300Z" fill="#8338EC"/>
<path d="M360 300H420V360H360V300Z" fill="#8338EC"/>
<path d="M360 360V330H420V360H360Z" fill="#3A86FF"/>
<path d="M420 300H480V360H420V300Z" fill="#FFBE0B"/>
<path d="M480 360H450V300H480V360Z" fill="#8338EC"/>
<path d="M360 360H420V420H360V360Z" fill="#3A86FF"/>
<path d="M360 360H420L360 420V360Z" fill="#FFBE0B"/>
<path d="M420 360H480V420H420V360Z" fill="#3A86FF"/>
<path d="M420 360H480L420 420V360Z" fill="#8338EC"/>
<path d="M360 420H420V480H360V420Z" fill="#8338EC"/>
<path d="M360 420C376.569 420 390 433.431 390 450C390 466.569 376.569 480 360 480V450V420Z" fill="#3A86FF"/>
<path d="M420 420H480V480H420V420Z" fill="#FF006E"/>
<path d="M420 420H450V480H420V420Z" fill="#3A86FF"/>
<path d="M360 480H420V540H360V480Z" fill="#FF006E"/>
<path d="M420 480C420 496.569 406.569 510 390 510C373.431 510 360 496.569 360 480H390H420Z" fill="#FFBE0B"/>
<path d="M420 480H480V540H420V480Z" fill="#FB5607"/>
<path d="M360 540H420V600H360V540Z" fill="#3A86FF"/>
<path d="M420 600C403.431 600 390 586.569 390 570C390 553.431 403.431 540 420 540V570V600Z" fill="#FFBE0B"/>
<path d="M420 540H480V600H420V540Z" fill="#FFBE0B"/>
<path d="M480 0H600V120H480V0Z" fill="#FFBE0B"/>
<path d="M600 0V60H480V0L600 0Z" fill="#8338EC"/>
<path d="M480 120H540V180H480V120Z" fill="#FB5607"/>
<path d="M540 120V180L480 120H540Z" fill="#FF006E"/>
<path d="M540 120H600V180H540V120Z" fill="#FB5607"/>
<path d="M480 180H540V240H480V180Z" fill="#FB5607"/>
<path d="M480 240V210H540V240H480Z" fill="#8338EC"/>
<path d="M540 180H600V240H540V180Z" fill="#FB5607"/>
<path d="M540 180C556.569 180 570 193.431 570 210C570 226.569 556.569 240 540 240V210V180Z" fill="#8338EC"/>
<path d="M480 240H540V300H480V240Z" fill="#FF006E"/>
<path d="M480 240C496.569 240 510 253.431 510 270C510 286.569 496.569 300 480 300V270V240Z" fill="#3A86FF"/>
<path d="M540 240H600V300H540V240Z" fill="#FF006E"/>
<path d="M600 300H540L600 240V300Z" fill="#8338EC"/>
<path d="M480 300H540V360H480V300Z" fill="#8338EC"/>
<path d="M540 300H600V360H540V300Z" fill="#FB5607"/>
<path d="M540 360V330H600V360H540Z" fill="#3A86FF"/>
<path d="M480 360H540V420H480V360Z" fill="#3A86FF"/>
<path d="M480 360H510V420H480V360Z" fill="#FFBE0B"/>
<path d="M540 360H600V420H540V360Z" fill="#8338EC"/>
<path d="M600 360C600 376.569 586.569 390 570 390C553.431 390 540 376.569 540 360H570H600Z" fill="#FFBE0B"/>
<path d="M480 420H540V480H480V420Z" fill="#8338EC"/>
<path d="M540 420H600V480H540V420Z" fill="#3A86FF"/>
<path d="M480 480H600V600H480V480Z" fill="#FF006E"/>
<path d="M480 480C513.137 480 540 506.863 540 540C540 573.137 513.137 600 480 600V540V480Z" fill="#3A86FF"/>
<path d="M0 0H120V120H0V0Z" fill="#3A86FF"/>
<path d="M0 120H60V180H0V120Z" fill="#FFBE0B"/>
<path d="M60 180C43.4315 180 30 166.569 30 150C30 133.431 43.4315 120 60 120V150V180Z" fill="#8338EC"/>
<path d="M60 120H120V180H60V120Z" fill="#3A86FF"/>
<path d="M60 180V150H120V180H60Z" fill="#8338EC"/>
<path d="M0 180H60V240H0V180Z" fill="#8338EC"/>
<path d="M60 180H120V240H60V180Z" fill="#8338EC"/>
<path d="M60 180H120L60 240V180Z" fill="#3A86FF"/>
<path d="M0 240H60V300H0V240Z" fill="#FB5607"/>
<path d="M60 300H30V240H60V300Z" fill="#8338EC"/>
<path d="M60 240H120V300H60V240Z" fill="#3A86FF"/>
<path d="M60 240C76.5685 240 90 253.431 90 270C90 286.569 76.5685 300 60 300V270V240Z" fill="#FB5607"/>
<path d="M0 300H60V360H0V300Z" fill="#8338EC"/>
<path d="M60 300V330H0L0 300H60Z" fill="#FFBE0B"/>
<path d="M60 300H120V360H60V300Z" fill="#FF006E"/>
<path d="M60 360C60 343.431 73.4315 330 90 330C106.569 330 120 343.431 120 360H90H60Z" fill="#FB5607"/>
<path d="M0 360H120V480H0V360Z" fill="#8338EC"/>
<path d="M0 480H60V540H0V480Z" fill="#8338EC"/>
<path d="M60 540H30V480H60V540Z" fill="#3A86FF"/>
<path d="M60 480H120V540H60V480Z" fill="#8338EC"/>
<path d="M0 540H60V600H0V540Z" fill="#FFBE0B"/>
<path d="M60 540H120V600H60V540Z" fill="#8338EC"/>
<path d="M120 600H90V540H120V600Z" fill="#FB5607"/>
<path d="M120 0H240V120H120V0Z" fill="#3A86FF"/>
<path d="M120 120C120 86.8629 146.863 60 180 60C213.137 60 240 86.8629 240 120H180H120Z" fill="#FFBE0B"/>
<path d="M120 120H180V180H120V120Z" fill="#FFBE0B"/>
<path d="M180 180H150V120H180V180Z" fill="#FF006E"/>
<path d="M180 120H240V180H180V120Z" fill="#FB5607"/>
<path d="M120 180H180V240H120V180Z" fill="#3A86FF"/>
<path d="M180 240C163.431 240 150 226.569 150 210C150 193.431 163.431 180 180 180V210V240Z" fill="#FB5607"/>
<path d="M180 180H240V240H180V180Z" fill="#8338EC"/>
<path d="M240 240H210V180H240V240Z" fill="#FFBE0B"/>
<path d="M120 240H240V360H120V240Z" fill="#3A86FF"/>
<path d="M120 240C153.137 240 180 266.863 180 300C180 333.137 153.137 360 120 360V300V240Z" fill="#FB5607"/>
<path d="M120 360H240V480H120V360Z" fill="#FB5607"/>
<path d="M240 360V480L120 360H240Z" fill="#FFBE0B"/>
<path d="M120 480H180V540H120V480Z" fill="#3A86FF"/>
<path d="M180 480H240V540H180V480Z" fill="#3A86FF"/>
<path d="M180 480H240L180 540V480Z" fill="#FF006E"/>
<path d="M120 540H180V600H120V540Z" fill="#3A86FF"/>
<path d="M180 540H240V600H180V540Z" fill="#FFBE0B"/>
<path d="M240 540C240 556.569 226.569 570 210 570C193.431 570 180 556.569 180 540H210H240Z" fill="#8338EC"/>
<path d="M240 0H300V60H240V0Z" fill="#FFBE0B"/>
<path d="M300 0H360V60H300V0Z" fill="#3A86FF"/>
<path d="M360 60H330V0L360 0V60Z" fill="#FF006E"/>
<path d="M240 60H300V120H240V60Z" fill="#FFBE0B"/>
<path d="M240 60H300L240 120V60Z" fill="#8338EC"/>
<path d="M300 60H360V120H300V60Z" fill="#FB5607"/>
<path d="M240 120H300V180H240V120Z" fill="#3A86FF"/>
<path d="M240 180C240 163.431 253.431 150 270 150C286.569 150 300 163.431 300 180H270H240Z" fill="#FFBE0B"/>
<path d="M300 120H360V180H300V120Z" fill="#8338EC"/>
<path d="M240 180H300V240H240V180Z" fill="#3A86FF"/>
<path d="M240 240V210H300V240H240Z" fill="#FFBE0B"/>
<path d="M300 180H360V240H300V180Z" fill="#FFBE0B"/>
<path d="M300 180H360L300 240V180Z" fill="#FF006E"/>
<path d="M240 240H300V300H240V240Z" fill="#FFBE0B"/>
<path d="M240 240C256.569 240 270 253.431 270 270C270 286.569 256.569 300 240 300V270V240Z" fill="#FF006E"/>
<path d="M300 240H360V300H300V240Z" fill="#3A86FF"/>
<path d="M300 240H330V300H300V240Z" fill="#FB5607"/>
<path d="M240 300H300V360H240V300Z" fill="#8338EC"/>
<path d="M240 300H270V360H240V300Z" fill="#FF006E"/>
<path d="M300 300H360V360H300V300Z" fill="#FF006E"/>
<path d="M300 360V330H360V360H300Z" fill="#3A86FF"/>
<path d="M240 360H360V480H240V360Z" fill="#FB5607"/>
<path d="M240 480H360V600H240V480Z" fill="#8338EC"/>
<path d="M360 0H420V60H360V0Z" fill="#FB5607"/>
<path d="M420 0C420 16.5685 406.569 30 390 30C373.431 30 360 16.5685 360 0L390 0L420 0Z" fill="#FFBE0B"/>
<path d="M420 0H480V60H420V0Z" fill="#3A86FF"/>
<path d="M360 60H420V120H360V60Z" fill="#3A86FF"/>
<path d="M420 60H480V120H420V60Z" fill="#3A86FF"/>
<path d="M420 60C436.569 60 450 73.4315 450 90C450 106.569 436.569 120 420 120V90V60Z" fill="#8338EC"/>
<path d="M360 120H480V240H360V120Z" fill="#8338EC"/>
<path d="M360 240H420V300H360V240Z" fill="#FF006E"/>
<path d="M420 240V300L360 240H420Z" fill="#8338EC"/>
<path d="M420 240H480V300H420V240Z" fill="#8338EC"/>
<path d="M480 240V300L420 240H480Z" fill="#FFBE0B"/>
<path d="M360 300H420V360H360V300Z" fill="#FF006E"/>
<path d="M420 300V360L360 300H420Z" fill="#FFBE0B"/>
<path d="M420 300H480V360H420V300Z" fill="#8338EC"/>
<path d="M420 360V330H480V360H420Z" fill="#FB5607"/>
<path d="M360 360H420V420H360V360Z" fill="#FB5607"/>
<path d="M360 420V360L420 420H360Z" fill="#8338EC"/>
<path d="M420 360H480V420H420V360Z" fill="#FF006E"/>
<path d="M480 420H420L480 360V420Z" fill="#FFBE0B"/>
<path d="M360 420H420V480H360V420Z" fill="#FFBE0B"/>
<path d="M360 480V450H420V480H360Z" fill="#FF006E"/>
<path d="M420 420H480V480H420V420Z" fill="#FF006E"/>
<path d="M420 420H480L420 480V420Z" fill="#FB5607"/>
<path d="M360 480H480V600H360V480Z" fill="#8338EC"/>
<path d="M360 480C393.137 480 420 506.863 420 540C420 573.137 393.137 600 360 600V540V480Z" fill="#FFBE0B"/>
<path d="M480 0H540V60H480V0Z" fill="#8338EC"/>
<path d="M540 60C523.431 60 510 46.5685 510 30C510 13.4315 523.431 0 540 0V30V60Z" fill="#FFBE0B"/>
<path d="M540 0H600V60H540V0Z" fill="#FF006E"/>
<path d="M480 60H540V120H480V60Z" fill="#8338EC"/>
<path d="M540 60H600V120H540V60Z" fill="#8338EC"/>
<path d="M600 120H540L600 60V120Z" fill="#FF006E"/>
<path d="M480 120H600V240H480V120Z" fill="#FF006E"/>
<path d="M600 120V240L480 120H600Z" fill="#FB5607"/>
<path d="M480 240H540V300H480V240Z" fill="#FFBE0B"/>
<path d="M480 240H510V300H480V240Z" fill="#FB5607"/>
<path d="M540 240H600V300H540V240Z" fill="#FFBE0B"/>
<path d="M480 300H540V360H480V300Z" fill="#FFBE0B"/>
<path d="M540 300C540 316.569 526.569 330 510 330C493.431 330 480 316.569 480 300H510H540Z" fill="#FF006E"/>
<path d="M540 300H600V360H540V300Z" fill="#FB5607"/>
<path d="M540 360C540 343.431 553.431 330 570 330C586.569 330 600 343.431 600 360H570H540Z" fill="#8338EC"/>
<path d="M480 360H540V420H480V360Z" fill="#3A86FF"/>
<path d="M480 420V390H540V420H480Z" fill="#FF006E"/>
<path d="M540 360H600V420H540V360Z" fill="#FFBE0B"/>
<path d="M480 420H540V480H480V420Z" fill="#3A86FF"/>
<path d="M540 420H600V480H540V420Z" fill="#FF006E"/>
<path d="M480 480H540V540H480V480Z" fill="#FF006E"/>
<path d="M480 540V480L540 540H480Z" fill="#3A86FF"/>
<path d="M540 480H600V540H540V480Z" fill="#8338EC"/>
<path d="M600 540H540L600 480V540Z" fill="#3A86FF"/>
<path d="M480 540H540V600H480V540Z" fill="#FFBE0B"/>
<path d="M480 600C480 583.431 493.431 570 510 570C526.569 570 540 583.431 540 600H510H480Z" fill="#3A86FF"/>
<path d="M540 540H600V600H540V540Z" fill="#3A86FF"/>
</svg>
